<?xml version="1.0" encoding="UTF-8" standalone="no"?><!DOCTYPE svg PUBLIC "-//W3C//DTD SVG 1.1//EN" "http://www.w3.org/Graphics/SVG/1.1/DTD/svg11.dtd"><svg width="100%" height="100%" viewBox="0 0 303 115" version="1.1" xmlns="http://www.w3.org/2000/svg" xmlns:xlink="http://www.w3.org/1999/xlink" xml:space="preserve" xmlns:serif="http://www.serif.com/" style="fill-rule:evenodd;clip-rule:evenodd;stroke-linejoin:round;stroke-miterlimit:1.41421;"><clipPath id="_clip1"><path d="M33.768,112.927l-19.295,-33.601l0,33.601l-14.473,0l0,-56.001l15.277,0l19.297,33.599l0,-33.599l14.471,0l0,56.001l-15.277,0Zm60.102,-2.6c-2.279,2.267 -5.427,3.399 -9.447,3.399l-18.493,0c-4.02,0 -7.17,-1.132 -9.447,-3.399c-2.279,-2.267 -3.417,-5.401 -3.417,-9.402l0,-18.399c0,-4 1.138,-7.132 3.417,-9.399c2.277,-2.267 5.427,-3.402 9.447,-3.402l18.493,0c4.02,0 7.168,1.135 9.447,3.402c2.279,2.267 3.417,5.399 3.417,9.399l0,18.399c0,4.001 -1.138,7.135 -3.417,9.402Zm-10.652,-26.601c0,-2.133 -1.074,-3.201 -3.217,-3.201l-9.649,0c-2.143,0 -3.215,1.068 -3.215,3.201l0,16c0,2.133 1.072,3.201 3.215,3.201l9.649,0c2.143,0 3.217,-1.068 3.217,-3.201l0,-16Zm36.581,17.92c0.536,0.534 1.205,0.8 2.011,0.8l10.451,0l0,10.439c-1.554,0.213 -3.189,0.319 -4.904,0.319c-1.448,0.241 -3.083,0.363 -4.905,0.363l-5.468,0c-3.644,0 -6.565,-1.091 -8.763,-3.272c-2.198,-2.182 -3.297,-5.082 -3.297,-8.698l0,-20.351l-4.824,0l0,-10.8l4.824,0l1.609,-9.561l12.462,0l0,9.561l10.05,0l0,10.8l-10.05,0l0,18.401c0,0.8 0.268,1.467 0.804,1.999Zm29.748,-4.319l0,3.027c0,0.758 0.268,1.389 0.804,1.895c0.536,0.504 1.207,0.756 2.011,0.756l15.115,0c2.734,-0.301 5.468,-0.602 8.202,-0.906l0,10.024c-3.11,0.427 -6.299,0.64 -9.569,0.64c-2.787,0.483 -5.816,0.723 -9.086,0.723l-9.486,0c-3.646,0 -6.567,-1.085 -8.765,-3.262c-2.198,-2.174 -3.295,-5.066 -3.295,-8.672l0,-19.096c0,-3.977 1.138,-7.093 3.417,-9.349c2.277,-2.253 5.427,-3.382 9.447,-3.382l16.08,0c4.021,0 7.168,1.135 9.447,3.402c2.279,2.267 3.418,5.399 3.418,9.399l0,14.801l-27.74,0Zm13.67,-14.401c0,-2.133 -1.074,-3.201 -3.217,-3.201l-7.236,0c-2.145,0 -3.217,1.068 -3.217,3.201l0,4.401l13.67,0l0,-4.401Zm35.697,30.401c-0.965,0.106 -2.009,0.199 -3.136,0.279c-1.125,0.081 -2.198,0.12 -3.215,0.12c-3.645,0 -6.567,-1.093 -8.765,-3.279c-2.198,-2.186 -3.295,-5.094 -3.295,-8.72l0,-44.801l14.07,0l0,42.8c0,0.799 0.267,1.467 0.803,2.001c0.536,0.534 1.208,0.8 2.011,0.8l4.824,0l0,10.4c-1.073,0.159 -2.171,0.291 -3.297,0.4Z" clip-rule="nonzero"/></clipPath><g clip-path="url(#_clip1)"><rect x="0" y="56.926" width="202.211" height="56.8" style="fill:#fff;"/></g><clipPath id="_clip2"><path d="M206.022,43.008l-24.999,0l-12.693,-21.257l12.671,-21.743l25.354,-0.008l12.683,21.734l-13.016,21.274Zm41.002,23.999l-25.002,0l-12.691,-21.257l12.67,-21.741l25.354,-0.01l12.684,21.735l-13.015,21.273Zm0,47.001l-25.002,0l-12.691,-21.257l12.67,-21.743l25.353,-0.008l12.685,21.735l-13.015,21.273Zm41.999,-24.001l-25.001,0l-12.691,-21.257l12.669,-21.743l25.354,-0.008l12.685,21.736l-13.016,21.272Z" clip-rule="nonzero"/></clipPath><g clip-path="url(#_clip2)"><rect x="168.33" y="0" width="133.709" height="114.008" style="fill:#fff;"/></g></svg>